<svg xmlns="http://www.w3.org/2000/svg" xmlns:xlink="http://www.w3.org/1999/xlink" width="2000" zoomAndPan="magnify" viewBox="0 0 1500 1499.999933" height="2000" preserveAspectRatio="xMidYMid meet" version="1.0"><defs><clipPath id="7e0189c0d6"><path d="M 47.320312 89.730469 L 1453 89.730469 L 1453 1410.269531 L 47.320312 1410.269531 Z M 47.320312 89.730469 " clip-rule="nonzero"/></clipPath><clipPath id="6127987908"><path d="M 117.820312 89.730469 L 1382.179688 89.730469 C 1421.113281 89.730469 1452.679688 121.296875 1452.679688 160.230469 L 1452.679688 1339.769531 C 1452.679688 1378.703125 1421.113281 1410.269531 1382.179688 1410.269531 L 117.820312 1410.269531 C 78.886719 1410.269531 47.320312 1378.703125 47.320312 1339.769531 L 47.320312 160.230469 C 47.320312 121.296875 78.886719 89.730469 117.820312 89.730469 Z M 117.820312 89.730469 " clip-rule="nonzero"/></clipPath><clipPath id="9c31801dd9"><path d="M 0.320312 0.730469 L 1404 0.730469 L 1404 1321.269531 L 0.320312 1321.269531 Z M 0.320312 0.730469 " clip-rule="nonzero"/></clipPath><clipPath id="6591b62e26"><path d="M 70.820312 0.730469 L 1335.179688 0.730469 C 1374.113281 0.730469 1405.679688 32.296875 1405.679688 71.230469 L 1405.679688 1250.769531 C 1405.679688 1289.703125 1374.113281 1321.269531 1335.179688 1321.269531 L 70.820312 1321.269531 C 31.886719 1321.269531 0.320312 1289.703125 0.320312 1250.769531 L 0.320312 71.230469 C 0.320312 32.296875 31.886719 0.730469 70.820312 0.730469 Z M 70.820312 0.730469 " clip-rule="nonzero"/></clipPath><clipPath id="02e0d1d9e1"><rect x="0" width="1406" y="0" height="1322"/></clipPath></defs><g clip-path="url(#7e0189c0d6)"><g clip-path="url(#6127987908)"><g transform="matrix(1, 0, 0, 1, 47, 89)"><g clip-path="url(#02e0d1d9e1)"><g clip-path="url(#9c31801dd9)"><g clip-path="url(#6591b62e26)"><path fill="#ff3131" d="M 0.320312 0.730469 L 1403.390625 0.730469 L 1403.390625 1321.269531 L 0.320312 1321.269531 Z M 0.320312 0.730469 " fill-opacity="1" fill-rule="nonzero"/></g></g></g></g></g></g><path fill="#100f0d" d="M 623.785156 1336.953125 C 620.21875 1345.503906 610.480469 1349.664062 601.808594 1346.097656 C 593.253906 1342.535156 589.097656 1332.792969 592.660156 1324.121094 C 606.796875 1289.671875 619.507812 1254.152344 630.671875 1217.921875 C 641.601562 1182.285156 651.105469 1145.695312 659.066406 1108.160156 C 662.984375 1089.863281 659.066406 1071.808594 649.679688 1057.316406 C 640.296875 1042.824219 625.328125 1032.011719 607.035156 1028.09375 C 588.738281 1024.171875 570.683594 1028.09375 556.191406 1037.476562 C 541.699219 1046.863281 530.886719 1061.828125 526.96875 1080.125 C 517.34375 1125.382812 505.230469 1169.457031 490.617188 1211.984375 C 475.648438 1255.34375 458.304688 1297.394531 438.585938 1337.902344 C 434.546875 1346.21875 424.449219 1349.78125 416.015625 1345.625 C 407.699219 1341.585938 404.136719 1331.488281 408.292969 1323.054688 C 427.417969 1283.851562 444.289062 1242.988281 458.78125 1200.933594 C 473.035156 1159.476562 484.796875 1116.832031 494.0625 1073.113281 C 499.882812 1045.792969 516.15625 1023.460938 537.898438 1009.324219 C 559.636719 995.1875 586.71875 989.367188 614.042969 995.1875 C 641.363281 1001.007812 663.699219 1017.28125 677.832031 1039.019531 C 691.96875 1060.761719 697.789062 1087.84375 691.96875 1115.167969 C 683.890625 1153.300781 674.152344 1190.835938 662.746094 1227.78125 C 651.34375 1264.964844 638.277344 1301.433594 623.785156 1336.953125 Z M 773.699219 166.613281 C 802.445312 172.074219 802.210938 172.074219 811.949219 175.640625 C 821.691406 179.085938 826.207031 185.855469 824.660156 195.121094 C 823.117188 204.386719 817.652344 211.632812 802.683594 208.070312 C 787.714844 204.625 750.179688 196.902344 730.695312 193.933594 C 711.214844 190.964844 711.808594 190.726562 709.671875 190.488281 C 707.414062 190.132812 696.722656 185.976562 699.691406 169.9375 C 703.375 150.21875 759.085938 163.878906 773.699219 166.613281 Z M 1269.417969 1237.523438 C 1274.289062 1214.714844 1277.851562 1191.90625 1280.347656 1169.21875 C 1282.84375 1146.410156 1284.269531 1123.363281 1284.386719 1100.316406 C 1284.386719 1098.65625 1284.148438 1097.109375 1283.792969 1095.683594 C 1284.148438 1094.257812 1284.386719 1092.714844 1284.386719 1091.171875 C 1283.792969 930.207031 1226.890625 777.679688 1128.886719 657.34375 C 1032.664062 539.144531 897.003906 451.832031 736.398438 417.738281 C 646.355469 398.613281 556.546875 398.136719 471.015625 413.460938 C 382.277344 429.378906 298.175781 462.640625 223.214844 510.039062 C 215.375 515.027344 213 525.484375 217.988281 533.324219 C 222.980469 541.164062 233.3125 543.539062 241.152344 538.550781 C 312.546875 493.289062 392.496094 461.691406 476.957031 446.605469 C 558.210938 431.992188 643.621094 432.585938 729.390625 450.761719 C 882.273438 483.191406 1011.285156 566.226562 1102.753906 678.605469 C 1196.003906 793.242188 1250.292969 938.285156 1250.769531 1091.289062 C 1250.769531 1092.835938 1251.007812 1094.378906 1251.363281 1095.804688 C 1251.007812 1097.230469 1250.769531 1098.65625 1250.769531 1100.199219 C 1250.53125 1121.582031 1249.222656 1143.441406 1246.847656 1165.652344 C 1244.472656 1187.273438 1241.027344 1208.894531 1236.394531 1230.632812 C 1232.710938 1247.738281 1229.148438 1263.777344 1225.585938 1278.625 C 1222.019531 1293.355469 1217.980469 1309.273438 1213.46875 1326.261719 C 1211.09375 1335.289062 1216.4375 1344.4375 1225.347656 1346.929688 C 1234.257812 1349.425781 1243.523438 1343.960938 1246.015625 1335.050781 C 1249.9375 1320.203125 1254.09375 1304.046875 1258.253906 1286.464844 C 1262.527344 1269.121094 1266.210938 1252.847656 1269.417969 1237.523438 Z M 1186.976562 1219.585938 C 1221.546875 1055.769531 1186.5 893.382812 1101.921875 763.304688 C 1017.222656 632.988281 882.867188 535.105469 718.9375 500.300781 C 630.078125 481.410156 541.460938 483.191406 458.304688 502.082031 C 371.945312 521.800781 291.285156 560.289062 221.910156 613.746094 C 214.542969 619.449219 213.238281 630.019531 218.941406 637.386719 C 224.640625 644.75 235.214844 646.058594 242.578125 640.472656 C 308.035156 589.988281 384.296875 553.636719 465.910156 534.984375 C 544.429688 517.046875 628.058594 515.503906 712.046875 533.324219 C 866.949219 566.109375 993.941406 658.648438 1073.886719 781.71875 C 1153.835938 904.785156 1186.976562 1058.265625 1154.070312 1213.171875 C 1149.914062 1232.535156 1145.636719 1251.421875 1141.125 1269.953125 C 1136.609375 1288.605469 1131.621094 1307.253906 1126.273438 1326.023438 C 1123.78125 1334.933594 1129.007812 1344.316406 1137.914062 1346.8125 C 1146.824219 1349.304688 1156.210938 1344.078125 1158.703125 1335.171875 C 1163.929688 1316.519531 1169.039062 1297.394531 1173.792969 1278.03125 C 1178.542969 1258.667969 1183.058594 1239.304688 1187.097656 1220.179688 Z M 1104.296875 1203.667969 C 1104.535156 1202.953125 1104.652344 1202.242188 1104.773438 1201.410156 C 1134.234375 1060.640625 1104.058594 921.179688 1031.359375 809.277344 C 958.660156 697.375 843.3125 613.269531 702.78125 583.097656 C 702.066406 582.859375 701.234375 582.742188 700.40625 582.621094 C 611.902344 564.089844 523.878906 569.078125 442.863281 593.433594 C 358.519531 618.851562 281.898438 665.183594 220.246094 727.785156 C 213.710938 734.4375 213.832031 745.011719 220.484375 751.542969 C 227.136719 758.078125 237.707031 757.960938 244.242188 751.308594 C 301.855469 692.859375 373.605469 649.382812 452.484375 625.625 C 528.628906 602.699219 611.308594 598.066406 694.582031 615.644531 L 694.703125 615.644531 C 826.800781 643.679688 935.019531 722.558594 1003.207031 827.453125 C 1071.390625 932.347656 1099.664062 1063.375 1071.628906 1195.46875 L 1071.511719 1195.945312 C 1066.996094 1217.445312 1061.890625 1239.1875 1056.425781 1260.925781 L 1056.304688 1261.636719 C 1050.722656 1283.375 1044.902344 1304.757812 1038.605469 1325.785156 C 1035.992188 1334.695312 1041.101562 1344.078125 1050.007812 1346.691406 C 1058.917969 1349.304688 1068.304688 1344.199219 1070.917969 1335.289062 C 1077.332031 1313.550781 1083.390625 1291.8125 1088.855469 1270.070312 L 1089.09375 1269.359375 C 1094.4375 1247.859375 1099.546875 1226 1104.296875 1203.667969 Z M 1021.738281 1186.203125 C 1021.976562 1185.492188 1022.09375 1184.777344 1022.210938 1183.949219 C 1046.921875 1065.988281 1021.617188 948.976562 960.558594 855.25 C 899.617188 761.402344 803.039062 690.839844 685.199219 665.539062 C 684.367188 665.300781 683.65625 665.183594 682.824219 665.0625 C 590.757812 645.820312 499.40625 656.984375 419.222656 691.792969 C 336.304688 727.667969 265.386719 788.726562 217.75 867.367188 C 213 875.324219 215.496094 885.660156 223.453125 890.53125 C 231.414062 895.402344 241.746094 892.789062 246.617188 884.828125 C 290.570312 812.128906 356.027344 755.820312 432.410156 722.679688 C 506.773438 690.484375 591.589844 680.148438 677.003906 698.324219 L 677.121094 698.324219 C 786.410156 721.488281 875.980469 786.824219 932.40625 873.542969 C 988.832031 960.382812 1012.234375 1068.839844 989.070312 1178.125 L 989.070312 1178.363281 C 983.722656 1203.667969 977.902344 1228.375 971.605469 1252.371094 C 965.191406 1276.722656 958.183594 1301.078125 950.582031 1325.546875 C 947.847656 1334.457031 952.71875 1343.84375 961.628906 1346.574219 C 970.539062 1349.304688 979.921875 1344.4375 982.65625 1335.527344 C 990.257812 1311.292969 997.382812 1286.347656 1004.15625 1260.804688 C 1010.570312 1235.859375 1016.511719 1210.914062 1021.738281 1186.203125 Z M 939.53125 1167.199219 C 959.609375 1071.6875 939.175781 977.128906 889.878906 901.222656 C 840.699219 825.550781 762.769531 768.53125 667.617188 748.097656 C 666.785156 747.863281 666.074219 747.742188 665.242188 747.625 C 570.089844 727.785156 475.648438 748.21875 399.980469 797.398438 C 324.425781 846.578125 267.40625 924.503906 246.972656 1019.539062 C 246.738281 1020.371094 246.617188 1021.082031 246.5 1021.914062 C 242.699219 1039.851562 238.304688 1057.554688 233.3125 1075.015625 C 228.324219 1092.714844 222.621094 1110.414062 216.328125 1127.996094 C 213.238281 1136.789062 217.75 1146.410156 226.542969 1149.496094 C 235.332031 1152.585938 244.957031 1148.074219 248.042969 1139.28125 C 254.457031 1121.464844 260.28125 1103.050781 265.625 1084.042969 C 270.734375 1065.867188 275.367188 1047.335938 279.285156 1028.6875 C 279.40625 1028.09375 279.640625 1027.378906 279.640625 1026.667969 C 298.175781 940.542969 349.730469 869.980469 418.152344 825.433594 C 486.933594 780.765625 572.703125 762.234375 659.300781 780.648438 L 659.660156 780.765625 C 746.140625 799.179688 816.9375 850.855469 861.605469 919.515625 C 906.269531 988.296875 924.800781 1074.066406 906.390625 1160.664062 C 900.570312 1188.460938 893.796875 1216.140625 886.3125 1243.699219 C 878.59375 1271.972656 870.394531 1299.292969 861.722656 1325.308594 C 858.871094 1334.101562 863.625 1343.605469 872.414062 1346.457031 C 881.207031 1349.425781 890.710938 1344.554688 893.679688 1335.765625 C 903.0625 1307.609375 911.496094 1279.8125 918.863281 1252.492188 C 926.347656 1224.8125 933.238281 1196.539062 939.296875 1167.671875 Z M 329.058594 1039.019531 C 318.367188 1089.507812 303.636719 1138.09375 285.226562 1184.542969 C 266.457031 1232.175781 243.765625 1277.675781 217.75 1320.675781 C 213 1328.636719 215.496094 1338.972656 223.453125 1343.84375 C 231.414062 1348.59375 241.746094 1346.097656 246.617188 1338.140625 C 273.464844 1293.59375 296.984375 1246.433594 316.46875 1196.894531 C 335.59375 1148.546875 350.917969 1097.941406 361.964844 1045.316406 L 362.085938 1044.605469 C 375.746094 981.167969 413.757812 929.019531 464.246094 896.234375 C 514.851562 863.328125 578.167969 849.667969 641.957031 863.207031 C 705.75 876.75 758.019531 914.765625 790.925781 965.488281 C 823.828125 1016.09375 837.492188 1079.410156 823.949219 1143.203125 C 817.296875 1174.324219 809.8125 1204.972656 801.257812 1235.027344 C 792.707031 1265.4375 783.082031 1295.492188 772.628906 1324.953125 C 769.542969 1333.746094 774.175781 1343.367188 782.847656 1346.457031 C 791.636719 1349.542969 801.257812 1344.910156 804.347656 1336.238281 C 815.039062 1306.066406 824.78125 1275.417969 833.570312 1244.175781 C 842.242188 1213.289062 849.964844 1181.929688 856.734375 1150.210938 C 872.175781 1077.390625 856.617188 1005.164062 818.957031 947.195312 C 781.300781 889.34375 721.550781 845.746094 648.730469 830.304688 C 575.910156 814.859375 503.683594 830.421875 445.714844 868.078125 C 387.742188 905.738281 344.265625 965.488281 328.824219 1038.308594 Z M 714.539062 1336.59375 C 739.488281 1270.902344 772.984375 1179.671875 774.53125 1097.824219 C 776.195312 1011.222656 743.050781 936.386719 631.503906 912.746094 L 631.03125 912.625 C 581.136719 902.171875 531.601562 912.984375 492.042969 938.761719 C 452.246094 964.65625 422.3125 1005.757812 411.738281 1055.769531 L 411.621094 1056.128906 C 401.640625 1103.289062 388.335938 1149.023438 372.300781 1192.976562 C 355.789062 1238 336.1875 1281.359375 313.972656 1322.578125 C 309.578125 1330.773438 312.667969 1340.992188 320.863281 1345.386719 C 329.058594 1349.78125 339.277344 1346.691406 343.671875 1338.496094 C 366.71875 1295.730469 387.03125 1251.066406 404.019531 1204.5 C 420.648438 1159.238281 434.191406 1112.316406 444.527344 1063.730469 C 444.761719 1063.015625 444.882812 1062.304688 445 1061.59375 C 453.910156 1021.082031 478.261719 987.820312 510.457031 966.796875 C 542.765625 945.769531 583.039062 936.980469 623.785156 945.414062 C 624.378906 945.53125 625.089844 945.769531 625.683594 945.769531 C 715.726562 965.25 742.457031 1026.429688 741.148438 1097.109375 C 739.722656 1172.898438 707.414062 1260.925781 683.296875 1324.359375 C 679.972656 1333.03125 684.367188 1342.773438 693.039062 1346.097656 C 701.59375 1349.542969 711.332031 1345.265625 714.539062 1336.59375 Z M 576.621094 1090.695312 C 567.949219 1131.441406 557.378906 1171 544.90625 1209.488281 C 532.195312 1248.691406 517.582031 1286.820312 501.191406 1323.648438 C 497.386719 1332.082031 501.191406 1342.058594 509.625 1345.863281 C 518.058594 1349.664062 528.035156 1345.863281 531.839844 1337.308594 C 548.824219 1299.296875 563.910156 1259.976562 576.980469 1219.703125 C 589.808594 1179.910156 600.855469 1139.164062 609.648438 1097.585938 C 611.546875 1088.558594 605.726562 1079.53125 596.699219 1077.628906 C 587.550781 1075.847656 578.523438 1081.667969 576.621094 1090.695312 Z M 609.054688 267.824219 C 599.789062 267.703125 592.421875 259.980469 592.539062 250.714844 C 592.660156 241.449219 600.382812 234.085938 609.648438 234.203125 C 636.851562 234.796875 663.933594 236.582031 690.78125 239.667969 C 717.511719 242.757812 744.476562 247.152344 771.441406 252.855469 C 875.386719 274.949219 971.132812 314.984375 1055.832031 369.035156 C 1143.738281 425.101562 1219.882812 496.378906 1281.179688 578.34375 C 1286.761719 585.710938 1285.21875 596.28125 1277.851562 601.867188 C 1270.488281 607.449219 1259.914062 605.90625 1254.332031 598.539062 C 1195.292969 519.78125 1122.234375 451.355469 1037.773438 397.425781 C 956.519531 345.511719 864.574219 307.023438 764.433594 285.878906 C 738.65625 280.414062 712.757812 276.136719 686.980469 273.167969 C 660.609375 270.078125 634.59375 268.296875 609.054688 267.824219 Z M 482.539062 360.242188 C 473.390625 361.667969 464.71875 355.253906 463.414062 346.105469 C 461.988281 336.960938 468.402344 328.289062 477.550781 326.980469 C 522.574219 320.210938 568.902344 317.359375 615.824219 318.785156 C 661.679688 320.210938 707.886719 325.675781 753.980469 335.414062 C 870.277344 360.003906 974.8125 409.542969 1063.433594 477.253906 C 1155.496094 547.460938 1230.21875 637.386719 1282.722656 739.191406 C 1287 747.386719 1283.671875 757.601562 1275.476562 761.878906 C 1267.28125 766.15625 1257.0625 762.828125 1252.789062 754.632812 C 1202.539062 657.222656 1131.027344 571.335938 1043 504.101562 C 958.300781 439.476562 858.160156 392.078125 746.972656 368.441406 C 702.542969 359.054688 658.351562 353.828125 614.875 352.519531 C 570.328125 350.976562 526.015625 353.710938 482.539062 360.242188 Z M 482.539062 360.242188 " fill-opacity="1" fill-rule="evenodd"/></svg>